<svg width="158" height="66" viewBox="0 0 158 66" fill="none" xmlns="http://www.w3.org/2000/svg">
<path d="M97.5639 56.3202V61.29H96.387V50.4037H97.5639V55.2552H103.802V50.4037H104.979V61.29H103.802V56.3202H97.5639Z" fill="white"/>
<path d="M114.395 61.4084C111.099 61.4084 108.863 58.8051 108.863 55.7285C108.863 52.652 111.099 50.0487 114.395 50.0487C117.69 50.0487 119.926 52.652 119.926 55.7285C119.926 58.8051 117.69 61.4084 114.395 61.4084ZM114.395 51.232C111.923 51.232 110.158 53.2436 110.158 55.7285C110.158 58.2135 111.923 60.2251 114.395 60.2251C116.866 60.2251 118.632 58.2135 118.632 55.7285C118.632 53.2436 116.866 51.232 114.395 51.232Z" fill="white"/>
<path d="M128.989 58.2135L124.87 52.4153V61.29H123.693V50.4037H124.987L128.989 56.3202L132.991 50.4037H134.285V61.29H133.108V52.4153L128.989 58.2135Z" fill="white"/>
<path d="M146.173 51.4687H139.582V55.2552H145.467V56.3202H139.582V60.1067H146.29V61.1717H138.405V50.2854H146.29V51.4687H146.173Z" fill="white"/>
<path d="M87.387 26.6195V61.7633C87.387 61.8817 87.2693 61.8817 87.2693 61.8817H49.3709C49.2532 61.8817 49.2532 61.7633 49.2532 61.7633V58.9234C49.2532 58.8051 49.3709 58.6868 49.4886 58.6868H83.7384C83.8561 58.6868 83.8561 58.5684 83.8561 58.5684V28.6311C83.8561 28.6311 83.8561 28.5128 83.7384 28.5128L56.5504 14.4316H56.4327L28.7739 25.9095H22.536C22.4183 25.9095 22.4183 25.7912 22.536 25.7912L56.5504 11H56.6681L87.2693 26.3828C87.2693 26.5012 87.387 26.5012 87.387 26.6195Z" fill="#EFC591"/>
<path d="M77.5004 30.5244H74.3226V12.42H77.5004V21.5313V30.5244Z" fill="white"/>
<path d="M53.2549 50.1671H45.2515V61.8817H41.4852V28.7494H53.8433C61.2582 28.7494 66.2015 32.7726 66.2015 39.2807C66.2015 46.4988 60.3167 50.1671 53.2549 50.1671ZM53.6079 32.181H45.2515V46.7355H53.3726C58.7866 46.7355 62.4352 43.7773 62.4352 39.3991C62.4352 34.6659 58.9043 32.181 53.6079 32.181Z" fill="white"/>
<path d="M49.1355 46.7355H45.2515V50.1671H49.1355V46.7355Z" fill="#EFC591"/>
<path d="M46.3108 46.7355H45.2515V50.1671H46.3108V46.7355Z" fill="#D1A26F"/>
<path d="M41.4852 46.7355H32.0694V50.1671H41.4852V46.7355Z" fill="#EFC591"/>
<path d="M40.5436 62H36.5419L31.3633 50.167H16.2981L10.884 62H7L22.0652 28.6311H25.5961L40.5436 62ZM23.713 32.8909L17.7104 46.7355H29.8332L23.713 32.8909Z" fill="white"/>
<path d="M31.2456 50.1671H16.2981L17.7104 46.7355H29.7155L31.2456 50.1671Z" fill="#EFC591"/>
<path d="M17.7104 46.7355L16.2981 50.1671H17.8281L19.1228 46.7355H17.7104Z" fill="#D1A26F"/>
<path d="M35.1296 46.7355L36.7773 50.1671H35.1296L33.7172 46.7355H35.1296Z" fill="#D1A26F"/>
<path d="M78.7951 22.123V26.0278L77.5004 25.3179V21.5313" fill="#D1A26F"/>
</svg>
